<svg height="2500" width="1938" viewBox="2.695 3.6 118.30300000000001 25.599999999999998" fill="0" xmlns="http://www.w3.org/2000/svg"><path fill-rule="evenodd" clip-rule="evenodd" d="M21.86 13.48l-8.866 6.553 12.7-12.772v.012L29.361 3.6l-.198.276c-2.788 3.843-4.149 5.723-3.056 10.425l-.007-.007c.753 3.2-.052 6.75-2.653 9.354-3.28 3.285-8.527 4.017-12.848 1.06l3.013-1.397c2.758 1.084 5.775.608 7.944-1.563 2.168-2.171 2.655-5.333 1.565-7.964-.207-.5-.828-.625-1.263-.303zm-10.616-2.059c-2.646 2.647-3.18 7.238-.08 10.204l-.002.002L2.695 29.2c.53-.73 1.186-1.421 1.842-2.111l.026-.028.006-.006c1.873-1.97 3.73-3.924 2.595-6.685-1.52-3.698-.635-8.03 2.18-10.849A9.972 9.972 0 0 1 20.18 7.34c.796.296 1.49.717 2.032 1.11l-3.006 1.389c-2.799-1.176-6.005-.376-7.962 1.583zm76.41 11.32c-3.904 0-6.232-2.812-6.232-6.646 0-3.87 2.411-6.75 6.309-6.75 3.046 0 5.276 1.547 5.801 4.427h-2.338c-.345-1.638-1.723-2.556-3.463-2.556-2.81 0-4.043 2.412-4.043 4.879 0 2.466 1.233 4.86 4.043 4.86 2.683 0 3.861-1.926 3.952-3.528H87.64v-1.864h6.11l-.01.974c0 3.621-1.488 6.203-6.085 6.203zm24.442-.238V9.651h2.049v12.852h-2.049zm2.049-4.37l4.333-4.936h2.483l-3.897 4.23 3.934 5.076h-2.448l-3.186-4.361-1.219-.01zm-8.259 4.585c-3.046 0-4.696-2.142-4.696-4.878 0-2.754 1.65-4.878 4.696-4.878 3.064 0 4.695 2.124 4.695 4.878 0 2.736-1.631 4.878-4.695 4.878zm-2.556-4.878c0 2.124 1.16 3.186 2.556 3.186 1.414 0 2.556-1.062 2.556-3.186 0-2.124-1.142-3.204-2.556-3.204-1.396 0-2.556 1.08-2.556 3.204zm-7.84-3.168v7.83h2.048v-7.578h3.336v-1.728h-3.662l-1.723 1.476zm-62.82 3.993c.175 2.317 1.948 4.177 5.353 4.177 2.949 0 5.073-1.421 5.073-3.774 0-2.07-1.405-3.036-3.844-3.58l-1.931-.457c-1.422-.316-2.194-.825-2.194-1.738 0-1.123 1.07-1.842 2.633-1.842 1.51 0 2.615.666 2.79 2.37h2.16c-.14-2.51-2.09-4.143-4.95-4.143-2.826 0-4.757 1.527-4.757 3.756 0 2.387 2.036 3.124 3.861 3.546l1.914.42c1.527.352 2.141.984 2.141 1.809 0 1.281-1.281 1.843-2.896 1.843-1.703 0-2.896-.65-3.16-2.387H32.67zm15.273 4.054c-2.335 0-3.124-1.369-3.124-3.3v-5.985h1.983v5.88c0 1.036.597 1.72 1.65 1.72 1.597 0 2.387-1.193 2.387-2.72v-4.88h1.983v9.075h-1.895v-1.545h-.035c-.632 1.211-1.633 1.755-2.95 1.755zm6.775-9.285v12.55h1.983V21.28h.053c.632 1.053 1.86 1.44 2.791 1.44 2.668 0 4.09-2.177 4.09-4.757 0-2.58-1.422-4.757-4.09-4.757-.93 0-2.159.386-2.79 1.44h-.053v-1.212h-1.984zm4.388 7.635c-1.738 0-2.457-1.544-2.457-3.106 0-1.615.72-3.125 2.457-3.125 1.773 0 2.458 1.51 2.458 3.125 0 1.562-.685 3.106-2.458 3.106zm10.028 1.65c-2.843 0-4.458-2-4.458-4.756 0-2.826 1.615-4.757 4.3-4.757 2.616 0 4.213 1.773 4.3 4.51l-.86.808h-5.722c.158 1.615 1.018 2.58 2.44 2.58 1.036 0 1.773-.544 2.142-1.544h1.966c-.457 2.089-2.001 3.16-4.108 3.16zm-2.387-5.617h4.564c-.21-1.544-1.106-2.334-2.335-2.334-1.123 0-1.983.86-2.229 2.334zm7.99-2.229v7.636h1.984v-7.39h3.23v-1.685h-3.546l-1.668 1.44z" fill="url(#paint0_linear_3927_275932)" filter="url(#filter0_i_3927_275932)"/><defs><filter id="filter0_i_3927_275932" x="2.695" y="3.6" width="118.301" height="25.6" filterUnits="userSpaceOnUse" color-interpolation-filters="sRGB"><feFlood flood-opacity="0" result="BackgroundImageFix"/><feBlend in="SourceGraphic" in2="BackgroundImageFix" result="shape"/><feColorMatrix in="SourceAlpha" values="0 0 0 0 0 0 0 0 0 0 0 0 0 0 0 0 0 0 127 0" result="hardAlpha"/><feOffset dy=".417"/><feComposite in2="hardAlpha" operator="arithmetic" k2="-1" k3="1"/><feColorMatrix values="0 0 0 0 1 0 0 0 0 1 0 0 0 0 1 0 0 0 0.2 0"/><feBlend in2="shape" result="effect1_innerShadow_3927_275932"/></filter><linearGradient id="paint0_linear_3927_275932" x1="61.846" y1="3.6" x2="61.846" y2="29.2" gradientUnits="userSpaceOnUse"><stop stop-color="#fff" stop-opacity=".9"/><stop offset="1" stop-opacity=".5"/></linearGradient></defs></svg>